<?xml version="1.0" standalone="no"?>
<!DOCTYPE svg PUBLIC "-//W3C//DTD SVG 20010904//EN"
 "http://www.w3.org/TR/2001/REC-SVG-20010904/DTD/svg10.dtd">
<svg version="1.0" xmlns="http://www.w3.org/2000/svg"
 width="600.000000pt" height="450.000000pt" viewBox="0 0 600.000000 450.000000"
 preserveAspectRatio="xMidYMid meet">
<metadata>
Created by potrace 1.16, written by Peter Selinger 2001-2019
</metadata>
<g transform="translate(0.000000,450.000000) scale(0.100000,-0.100000)"
fill="#000000" stroke="none">
<path d="M1056 4112 c-15 -18 -16 -122 -14 -1403 l3 -1384 24 -49 c31 -63 84
-116 147 -147 l49 -24 1117 -3 1117 -2 57 21 c77 29 144 96 173 172 21 57 21
68 21 701 0 607 -1 644 -18 659 -16 14 -52 17 -248 19 l-229 3 -5 718 c-5 772
-3 736 -55 737 -12 0 -57 -37 -112 -92 l-93 -92 -93 92 c-65 64 -102 92 -118
92 -16 0 -52 -28 -116 -92 l-93 -92 -93 92 c-65 64 -102 92 -118 92 -16 0 -52
-28 -116 -92 l-93 -92 -93 92 c-65 64 -102 92 -118 92 -16 0 -52 -28 -116 -92
l-93 -92 -93 92 c-65 64 -102 92 -118 92 -16 0 -52 -28 -116 -92 l-93 -92 -93
92 c-100 97 -128 110 -161 74z m670 -302 c24 0 47 18 119 90 l89 90 92 -90
c120 -118 120 -118 239 0 l90 90 90 -90 c119 -119 121 -119 240 0 l89 90 92
-90 c114 -112 126 -114 204 -35 30 30 58 55 62 55 4 0 9 -586 10 -1302 l3
-1303 28 -49 c15 -27 27 -50 27 -52 0 -2 -418 -4 -928 -4 -1026 0 -998 -2
-1059 62 -18 18 -37 46 -42 61 -8 19 -11 430 -11 1309 l0 1281 59 -56 c84 -81
94 -79 206 33 l89 90 92 -90 c73 -72 97 -90 120 -90z m1909 -1845 c0 -324 -3
-602 -8 -617 -9 -34 -61 -95 -96 -112 -91 -46 -201 -11 -253 79 l-23 40 -3
589 c-1 325 0 596 2 603 4 11 45 13 193 11 l188 -3 0 -590z"/>
<path d="M2107 3562 c-10 -10 -17 -32 -17 -48 -1 -25 -8 -32 -51 -53 -86 -40
-133 -140 -109 -230 22 -84 103 -145 205 -157 76 -9 115 -41 115 -94 0 -84
-118 -124 -181 -61 -17 17 -29 40 -29 55 0 31 -32 66 -60 66 -25 0 -60 -34
-60 -57 0 -72 58 -156 130 -188 37 -16 40 -21 40 -56 0 -31 5 -42 26 -56 24
-15 29 -15 53 -2 19 11 27 25 31 54 4 32 11 43 36 55 87 43 134 111 134 193 0
95 -87 189 -188 202 -79 10 -93 15 -118 40 -54 55 -7 145 76 145 65 0 97 -22
112 -77 30 -107 135 -80 114 29 -10 54 -59 114 -116 143 -45 23 -50 28 -50 60
0 52 -59 75 -93 37z"/>
<path d="M1518 3178 c-30 -24 -31 -56 -4 -83 22 -22 34 -25 93 -25 81 0 113
17 113 59 0 46 -27 61 -111 61 -45 0 -82 -5 -91 -12z"/>
<path d="M2592 3174 c-25 -17 -29 -51 -8 -80 12 -16 27 -19 101 -19 74 0 89 3
101 19 19 27 18 52 -6 76 -16 16 -33 20 -93 20 -49 0 -80 -5 -95 -16z"/>
<path d="M1797 2512 c-25 -27 -21 -69 7 -87 20 -14 84 -15 510 -13 469 3 488
4 502 22 21 29 17 63 -8 80 -20 14 -85 16 -509 16 -458 0 -487 -1 -502 -18z"/>
<path d="M1797 2122 c-24 -26 -21 -68 5 -86 20 -14 84 -16 505 -16 470 0 484
1 503 20 11 11 20 29 20 40 0 11 -9 29 -20 40 -19 19 -33 20 -508 20 -461 0
-490 -1 -505 -18z"/>
<path d="M1802 1734 c-30 -20 -30 -68 0 -88 20 -14 84 -16 505 -16 470 0 484
1 503 20 11 11 20 29 20 40 0 11 -9 29 -20 40 -19 19 -33 20 -503 20 -421 0
-485 -2 -505 -16z"/>
<path d="M3971 2974 c-106 -28 -226 -116 -267 -195 -18 -36 -18 -34 21 -42 27
-4 34 0 63 39 130 175 398 190 559 32 73 -72 106 -148 111 -260 4 -77 2 -88
-12 -88 -9 0 -20 10 -25 23 -5 12 -35 50 -66 85 -67 73 -89 78 -162 33 -71
-43 -197 -82 -285 -89 l-78 -5 0 -35 0 -35 83 6 c94 7 217 43 297 88 l55 30
48 -53 49 -53 -4 -155 c-4 -133 -8 -162 -27 -206 -26 -60 -68 -103 -131 -135
-54 -28 -164 -32 -221 -7 -44 19 -106 73 -131 113 l-18 30 0 -61 c0 -52 4 -64
25 -84 20 -19 25 -33 25 -72 0 -43 -3 -50 -25 -58 -20 -8 -25 -16 -25 -46 0
-29 3 -35 16 -30 55 21 58 20 122 -58 34 -42 62 -79 62 -83 -1 -9 -120 -96
-125 -91 -1 2 -19 35 -38 73 l-36 70 0 -75 c-1 -59 4 -82 20 -109 19 -32 23
-33 64 -28 60 6 69 -7 61 -83 l-7 -60 34 0 c32 0 35 3 43 43 8 38 12 42 41 45
33 3 36 0 45 -63 2 -15 12 -21 39 -23 l36 -3 -9 52 c-6 35 -6 60 1 76 9 20 16
22 53 17 24 -2 48 -1 54 3 6 4 39 63 73 130 l61 123 53 -21 c28 -11 94 -37
145 -56 101 -39 154 -81 187 -148 16 -33 21 -69 25 -210 5 -163 6 -170 26
-173 41 -6 46 17 42 190 -4 187 -17 230 -91 306 -53 55 -71 64 -307 155 -107
41 -203 78 -212 82 -14 5 -18 19 -18 52 0 39 6 52 45 96 38 44 59 83 90 174 2
6 17 14 33 18 41 8 90 60 102 106 11 41 -1 112 -20 124 -6 3 -10 50 -10 103 0
162 -34 255 -126 352 -114 120 -277 166 -433 124z m114 -1107 c44 0 92 5 108
11 27 11 27 11 27 -26 0 -31 -11 -51 -66 -120 l-66 -82 -68 82 c-58 69 -69 89
-70 120 0 37 0 37 28 26 15 -6 63 -11 107 -11z m242 -123 c24 -9 43 -21 43
-26 0 -4 -23 -53 -50 -109 -35 -68 -54 -97 -63 -93 -7 4 -36 25 -65 46 -60 44
-61 32 23 136 28 34 54 62 60 62 5 0 29 -7 52 -16z"/>
<path d="M4568 1338 c-1 -2 -5 -169 -8 -373 l-5 -370 -25 -3 c-31 -4 -36 -9
-44 -45 l-7 -29 190 4 191 3 27 28 28 27 0 197 c0 169 -2 197 -16 206 -9 6
-24 7 -33 4 -14 -6 -16 -29 -16 -190 0 -146 -3 -187 -14 -196 -9 -8 -47 -11
-107 -9 l-94 3 -5 370 -5 370 -27 3 c-16 2 -29 2 -30 0z"/>
<path d="M3776 1180 c-20 -28 -59 -64 -86 -81 -36 -22 -52 -39 -58 -62 l-8
-32 -366 -3 -366 -2 -96 -104 c-66 -72 -96 -111 -96 -128 0 -34 197 -228 232
-228 15 0 39 15 63 40 21 22 44 40 50 40 6 0 29 -18 50 -40 26 -26 48 -40 65
-40 17 0 39 14 65 40 21 22 42 40 46 40 3 0 27 -18 52 -40 50 -44 90 -52 107
-21 19 37 10 57 -63 129 -87 86 -105 90 -162 32 -21 -22 -44 -40 -50 -40 -5 1
-28 19 -50 40 -23 23 -50 40 -63 40 -13 0 -42 -18 -68 -42 l-45 -41 -44 43
c-25 24 -45 49 -45 55 0 6 24 34 53 63 l53 52 366 0 c423 0 391 -8 426 106 13
42 32 80 48 95 25 23 30 24 214 27 236 4 249 0 292 -95 74 -164 76 -359 6
-523 -31 -72 -39 -75 -242 -78 -112 -2 -195 1 -218 7 -47 14 -71 46 -98 125
-25 76 -48 101 -85 92 -42 -11 -48 -45 -20 -127 29 -83 42 -106 87 -148 56
-53 100 -61 311 -61 219 0 253 7 313 65 109 106 147 404 78 614 -45 136 -103
206 -193 231 -20 5 -122 10 -228 10 l-191 0 -36 -50z"/>
<path d="M4095 845 c-56 -55 -16 -145 63 -145 51 0 86 35 86 87 0 73 -96 111
-149 58z"/>
</g>
</svg>
